<svg id="Capa_1" data-name="Capa 1" xmlns="http://www.w3.org/2000/svg" viewBox="0 0 436.05 99.11"><defs><style>.cls-1{fill:#ec665b;}</style></defs><title>logo-coverfy</title><path class="cls-1" d="M191.08,129.09a22.77,22.77,0,0,1-23.21-23v-0.16a22.9,22.9,0,0,1,23.38-23.21c8.4,0,13.64,2.83,17.8,7.49l-7.74,8.32c-2.83-3-5.66-4.91-10.15-4.91-6.32,0-10.82,5.57-10.82,12.14v0.17c0,6.82,4.41,12.31,11.31,12.31,4.24,0,7.15-1.83,10.23-4.74l7.4,7.48C205,125.68,200,129.09,191.08,129.09Z" transform="translate(-32.21 -50.94)"/><path class="cls-1" d="M235.25,129.09c-13.81,0-24-10.24-24-23v-0.16c0-12.81,10.32-23.21,24.21-23.21s24,10.23,24,23v0.17C259.46,118.7,249.15,129.09,235.25,129.09ZM247,105.88c0-6.57-4.74-12.31-11.73-12.31-7.24,0-11.56,5.57-11.56,12.14v0.17c0,6.57,4.74,12.31,11.73,12.31,7.24,0,11.56-5.58,11.56-12.15v-0.16Z" transform="translate(-32.21 -50.94)"/><path class="cls-1" d="M288.66,128.43H277.18L259.63,83.5H273l10,29.87L293.07,83.5h13.15Z" transform="translate(-32.21 -50.94)"/><path class="cls-1" d="M350.38,110.21h-31c1.24,5.74,5.24,8.73,10.89,8.73,4.24,0,7.32-1.33,10.82-4.57l7.24,6.41c-4.16,5.16-10.15,8.32-18.21,8.32-13.4,0-23.3-9.4-23.3-23v-0.16c0-12.73,9.07-23.21,22-23.21,14.89,0,21.71,11.56,21.71,24.21V107C350.55,108.29,350.47,109,350.38,110.21ZM328.84,92.82c-5.24,0-8.65,3.74-9.65,9.48h19.05C337.49,96.65,334.17,92.82,328.84,92.82Z" transform="translate(-32.21 -50.94)"/><path class="cls-1" d="M383.49,95.9c-8.4,0-13.55,5.08-13.55,15.73v16.47H357.29V83.5h12.65v9c2.58-6.16,6.73-10.15,14.22-9.82V95.9h-0.67Z" transform="translate(-32.21 -50.94)"/><path class="cls-1" d="M411.78,77.43c-2.92,0-4.58,1.5-4.58,4.83V84h10.23V94.32H407.37v33.78H394.72V94.32h-5.25V83.92h5.25V81.09c0-9.81,4.91-14.31,13.8-14.31a28,28,0,0,1,9,1.25V78.51A16,16,0,0,0,411.78,77.43Z" transform="translate(-32.21 -50.94)"/><path class="cls-1" d="M451.12,129.18c-3.41,9.07-7.07,12.48-14.64,12.48a21,21,0,0,1-11.23-3.08l4.24-9.15a11.43,11.43,0,0,0,5.41,1.75c2.16,0,3.33-.66,4.41-2.91L421.84,83.5h13.39l10.15,30.37,9.73-30.37h13.15Z" transform="translate(-32.21 -50.94)"/><path class="cls-1" d="M135.26,102.46A51.52,51.52,0,1,0,64,150l10.59-29.77a20,20,0,1,1,18.28,0L103.45,150a51.51,51.51,0,0,0,31.8-47.59" transform="translate(-32.21 -50.94)"/></svg>